<svg preserveAspectRatio="none" width="100%" height="100%" overflow="visible" style="display: block;" viewBox="0 0 152.059 69.7602" fill="none" xmlns="http://www.w3.org/2000/svg">
<g id="line-horizontal">
<g id="Union" filter="url(#filter0_di_0_520)">
<path fill-rule="evenodd" clip-rule="evenodd" d="M75.8462 49.2917L17.5836 15.6547L15.3886 19.464L75.8315 54.3598L75.8343 54.3549L75.8439 54.3716L136.671 19.1975L134.475 15.3886L75.8462 49.2917Z" fill="var(--fill-0, #D3FFEF)"/>
</g>
<g id="Frame 203">
<path id="Rectangle 3" d="M16.4858 14.9763L18.959 16.4053L18.849 21.4615L14.2874 19.2082L16.4858 17.5594V14.9763Z" fill="var(--fill-0, #4FFFC0)"/>
<g id="Vector 3">
<path d="M18.9038 19.2627L16.4856 20.3069L18.9038 21.4885V19.2627Z" fill="var(--fill-0, #27254C)"/>
<path d="M18.9038 19.2627L16.4856 20.3069L18.9038 21.4885V19.2627Z" fill="var(--fill-1, #2C2C63)"/>
<path d="M18.9038 19.2627L16.4856 20.3069L18.9038 21.4885V19.2627Z" fill="var(--fill-2, #2F2F6F)"/>
</g>
</g>
<g id="Frame 204">
<path id="Rectangle 3_2" d="M135.198 14.9215L132.736 16.4054V21.4782L137.122 19.005L135.473 17.5596L135.198 14.9215Z" fill="var(--fill-0, #4FFFC0)"/>
<g id="Vector 3_2">
<path d="M132.736 19.2743L135.193 20.0932L132.736 21.4782V19.2743Z" fill="var(--fill-0, #27254C)"/>
<path d="M132.736 19.2743L135.193 20.0932L132.736 21.4782V19.2743Z" fill="var(--fill-1, #2C2C63)"/>
<path d="M132.736 19.2743L135.193 20.0932L132.736 21.4782V19.2743Z" fill="var(--fill-2, #2F2F6F)"/>
</g>
</g>
</g>
<defs>
<filter id="filter0_di_0_520" x="1.19209e-07" y="-1.19209e-07" width="152.059" height="69.7602" filterUnits="userSpaceOnUse" color-interpolation-filters="sRGB">
<feFlood flood-opacity="0" result="BackgroundImageFix"/>
<feColorMatrix in="SourceAlpha" type="matrix" values="0 0 0 0 0 0 0 0 0 0 0 0 0 0 0 0 0 0 127 0" result="hardAlpha"/>
<feOffset/>
<feGaussianBlur stdDeviation="7.69428"/>
<feComposite in2="hardAlpha" operator="out"/>
<feColorMatrix type="matrix" values="0 0 0 0 0.313726 0 0 0 0 0.85098 0 0 0 0 0.623529 0 0 0 0.8 0"/>
<feBlend mode="normal" in2="BackgroundImageFix" result="effect1_dropShadow_0_520"/>
<feBlend mode="normal" in="SourceGraphic" in2="effect1_dropShadow_0_520" result="shape"/>
<feColorMatrix in="SourceAlpha" type="matrix" values="0 0 0 0 0 0 0 0 0 0 0 0 0 0 0 0 0 0 127 0" result="hardAlpha"/>
<feOffset dy="-2.19837"/>
<feComposite in2="hardAlpha" operator="arithmetic" k2="-1" k3="1"/>
<feColorMatrix type="matrix" values="0 0 0 0 0.151815 0 0 0 0 0.146235 0 0 0 0 0.296902 0 0 0 1 0"/>
<feBlend mode="normal" in2="shape" result="effect2_innerShadow_0_520"/>
</filter>
</defs>
</svg>
