<svg preserveAspectRatio="none" width="100%" height="100%" overflow="visible" style="display: block;" viewBox="0 0 362.722 381.417" fill="none" xmlns="http://www.w3.org/2000/svg">
<g id="cube-glow" opacity="0.35" filter="url(#filter0_f_0_530)">
<path d="M181.365 120.91L241.812 155.809V225.607L181.365 260.506L120.918 225.607V155.809L181.365 120.91Z" fill="var(--fill-0, #4FFFC0)"/>
<path d="M241.812 155.905L241.812 225.607L181.365 260.506L181.198 260.41V190.708L241.645 155.809L241.812 155.905Z" fill="var(--fill-0, #4FFFC0)"/>
<path d="M241.812 155.809L181.365 190.708L120.918 155.809L181.365 120.91L241.812 155.809Z" fill="var(--fill-0, #4FFFC0)"/>
<path d="M181.357 120.91L241.804 155.809V225.607L181.357 260.506L120.91 225.607V155.809L181.357 120.91Z" fill="var(--fill-0, #4FFFC0)"/>
<path d="M166.375 166.111L183.538 168.933L180.736 163.512L172.069 162.09C171.055 161.933 170.315 161.506 170.04 160.919L166.962 154.327C166.688 153.74 166.957 153.159 167.699 152.731L169.941 151.437L175.366 159.579L180.727 156.484L187.561 168.846L184.661 150.269L180.161 152.867L176.884 147.429L185.394 142.516L182.923 137.223L159.264 150.881C158.056 151.579 157.619 152.524 158.062 153.479L163.074 164.205C163.521 165.161 164.725 165.857 166.375 166.111ZM190.924 167.466L203.03 160.478C204.236 159.782 204.675 158.834 204.231 157.877L199.219 147.15C198.774 146.2 197.569 145.505 195.918 145.244L188.487 144.088L181.79 147.954L190.224 149.266C191.239 149.427 191.978 149.854 192.252 150.438L195.333 157.03C195.605 157.619 195.336 158.199 194.593 158.628L191.564 160.377L189.915 161.301L190.924 167.466Z" fill="var(--fill-0, #4FFFC0)"/>
</g>
<defs>
<filter id="filter0_f_0_530" x="0" y="0" width="362.722" height="381.417" filterUnits="userSpaceOnUse" color-interpolation-filters="sRGB">
<feFlood flood-opacity="0" result="BackgroundImageFix"/>
<feBlend mode="normal" in="SourceGraphic" in2="BackgroundImageFix" result="shape"/>
<feGaussianBlur stdDeviation="60.4551" result="effect1_foregroundBlur_0_530"/>
</filter>
</defs>
</svg>
