<svg preserveAspectRatio="none" width="100%" height="100%" overflow="visible" style="display: block;" viewBox="0 0 774.559 894.384" fill="none" xmlns="http://www.w3.org/2000/svg">
<g id="bg-hexagon-gfx" opacity="0.06">
<path id="Polygon 5" opacity="0.8" d="M542.27 357.985V536.749L387.455 626.132L232.64 536.749V357.985L387.455 268.603L542.27 357.985Z" stroke="var(--stroke-0, #4FFFC0)" stroke-width="1.64877"/>
<path id="Polygon 6" opacity="0.6" d="M573.618 340.234V554.941L387.675 662.295L201.733 554.942V340.233L387.675 232.879L573.618 340.234Z" stroke="var(--stroke-0, #4FFFC0)" stroke-width="1.64877"/>
<path id="Polygon 7" opacity="0.4" d="M610.685 318.381V576.221L387.389 705.141L164.094 576.221V318.381L387.39 189.461L610.685 318.381Z" stroke="var(--stroke-0, #4FFFC0)" stroke-width="1.64877"/>
<path id="Polygon 8" opacity="0.2" d="M655.606 292.6V602.197L387.486 756.996L119.367 602.198V292.599L387.486 137.8L655.606 292.6Z" stroke="var(--stroke-0, #4FFFC0)" stroke-width="1.64877"/>
<path id="Polygon 9" opacity="0.1" d="M709.402 261.55V633.258L387.493 819.113L65.5833 633.258V261.55L387.493 75.6959L709.402 261.55Z" stroke="var(--stroke-0, #4FFFC0)" stroke-width="1.64877"/>
<path id="Polygon 10" opacity="0.1" d="M773.735 224.071V670.312L387.279 893.432L0.823944 670.312V224.071L387.279 0.951172L773.735 224.071Z" stroke="var(--stroke-0, #4FFFC0)" stroke-width="1.64877"/>
</g>
</svg>
