<svg width="18" height="16" viewBox="0 0 18 16" fill="none" xmlns="http://www.w3.org/2000/svg">
<path d="M0.240022 8.87387L3.74608 14.9701L5.3647 11.6129L3.59417 8.53668C3.3975 8.19612 3.3975 7.80403 3.59417 7.46173L5.8038 3.62129C6.00061 3.27937 6.33834 3.08389 6.7313 3.08404H7.91933L5.62017 8.25806H8.46091L4.59832 15.7419L12.3557 6.44787H9.97098L11.5984 3.08404H14.4495H16.1077L17.8823 -9.53674e-06H12.8014H9.42106H5.34611C4.70553 0.000141144 4.15573 0.318485 3.83506 0.873985L0.240022 7.12454C-0.0798949 7.68139 -0.0801194 8.31988 0.240022 8.87387ZM5.61432 16H12.5367C13.1759 16 13.727 15.6816 14.0486 15.1246L17.6437 8.87372C17.9618 8.31988 17.9618 7.68139 17.6437 7.12439L16.2061 4.6249H12.6573L14.2894 7.46173C14.4844 7.80433 14.4844 8.19634 14.2889 8.53684L12.0801 12.3782C11.882 12.7206 11.544 12.9158 11.1506 12.9158H9.54551L8.43025 12.9032L5.61432 16Z" fill="white"/>
</svg>
